<svg width="10" height="6" viewBox="0 0 10 6" fill="none" xmlns="http://www.w3.org/2000/svg">
<path fill-rule="evenodd" clip-rule="evenodd" d="M5.34116 4.79417L9.5 6L8.46486 1.79542L7.17353 3.0351L5.09052 0.865301C5.01981 0.791639 4.92211 0.75 4.82 0.75C4.71789 0.75 4.62019 0.791639 4.54948 0.865301L3.02 2.45851L0.770521 0.115301C0.627093 -0.0341034 0.389705 -0.0389485 0.240301 0.10448C0.0908968 0.247908 0.0860522 0.485295 0.22948 0.634699L2.74948 3.2597C2.82019 3.33336 2.91789 3.375 3.02 3.375C3.12211 3.375 3.21981 3.33336 3.29052 3.2597L4.82 1.66649L6.63249 3.5545L5.34116 4.79417Z" fill="#C02828"/>
</svg>
