<svg width="10" height="6" viewBox="0 0 10 6" fill="none" xmlns="http://www.w3.org/2000/svg">
<path fill-rule="evenodd" clip-rule="evenodd" d="M5.84116 1.20583L10 0L8.96486 4.20458L7.67353 2.9649L5.59052 5.1347C5.51981 5.20836 5.42211 5.25 5.32 5.25C5.21789 5.25 5.12019 5.20836 5.04948 5.1347L3.52 3.54149L1.27052 5.8847C1.12709 6.0341 0.889705 6.03895 0.740301 5.89552C0.590897 5.75209 0.586052 5.5147 0.72948 5.3653L3.24948 2.7403C3.32019 2.66664 3.41789 2.625 3.52 2.625C3.62211 2.625 3.71981 2.66664 3.79052 2.7403L5.32 4.33351L7.13249 2.4455L5.84116 1.20583Z" fill="#059669"/>
</svg>
