<svg width="25" height="24" viewBox="0 0 25 24" fill="none" xmlns="http://www.w3.org/2000/svg">
<path d="M17.8999 21H7.8999C3.8999 21 2.8999 20 2.8999 16V8C2.8999 4 3.8999 3 7.8999 3H17.8999C21.8999 3 22.8999 4 22.8999 8V16C22.8999 20 21.8999 21 17.8999 21Z" stroke="#BDBFC2" stroke-width="1.6" stroke-linecap="round" stroke-linejoin="round"/>
<path d="M14.8999 8H19.8999" stroke="#BDBFC2" stroke-width="1.6" stroke-linecap="round" stroke-linejoin="round"/>
<path d="M15.8999 12H19.8999" stroke="#BDBFC2" stroke-width="1.6" stroke-linecap="round" stroke-linejoin="round"/>
<path d="M17.8999 16H19.8999" stroke="#BDBFC2" stroke-width="1.6" stroke-linecap="round" stroke-linejoin="round"/>
<path d="M9.39984 11.2899C10.3995 11.2899 11.2098 10.4796 11.2098 9.47992C11.2098 8.48029 10.3995 7.66992 9.39984 7.66992C8.40021 7.66992 7.58984 8.48029 7.58984 9.47992C7.58984 10.4796 8.40021 11.2899 9.39984 11.2899Z" stroke="#BDBFC2" stroke-width="1.6" stroke-linecap="round" stroke-linejoin="round"/>
<path d="M12.8999 16.3298C12.7599 14.8798 11.6099 13.7398 10.1599 13.6098C9.6599 13.5598 9.1499 13.5598 8.6399 13.6098C7.1899 13.7498 6.0399 14.8798 5.8999 16.3298" stroke="#BDBFC2" stroke-width="1.6" stroke-linecap="round" stroke-linejoin="round"/>
</svg>
